<?xml version="1.0" encoding="iso-8859-1"?>
<!-- Generator: Adobe Illustrator 19.0.0, SVG Export Plug-In . SVG Version: 6.00 Build 0)  -->
<svg version="1.1" id="Layer_1" xmlns="http://www.w3.org/2000/svg" xmlns:xlink="http://www.w3.org/1999/xlink" x="0px" y="0px"
	 viewBox="0 0 512 512" style="enable-background:new 0 0 512 512;" xml:space="preserve">
<g>
	<path style="fill:#E6E7E8;" d="M508,306v28c0,8.8-6,16-14.8,16H476v-20v-24H508z"/>
	<path style="fill:#E6E7E8;" d="M469.2,286c8.8,0,14.8-7.2,14.8-16v-96h9.2c8.8,0,14.8,7.2,14.8,16v116h-32H296H36H4V190
		c0-8.8,8.4-16,17.2-16H28v96c0,8.8,8.4,16,17.2,16H469.2z"/>
</g>
<path style="fill:#F5F5F5;" d="M28,162v12v96c0,8.8,8.4,16,17.2,16h424c8.8,0,14.8-7.2,14.8-16v-96v-12H28z"/>
<g>
	<polygon style="fill:#E6E7E8;" points="296,306 36,306 36,330 36,350 476,350 476,330 476,306 	"/>
	<path style="fill:#00000000;" d="M36,330v20H21.2C12.4,350,4,342.8,4,334v-28h32V330z"/>
</g>
<path d="M493.2,354h-472C10,354,0,344.8,0,334V190c0-10.8,10-20,21.2-20H28c2.4,0,4,1.6,4,4s-1.6,4-4,4h-6.8C14.4,178,8,183.6,8,190
	v144c0,6.4,6.4,12,13.2,12h472c6.4,0,10.8-5.2,10.8-12V190c0-6.8-4.4-12-10.8-12H484c-2.4,0-4-1.6-4-4s1.6-4,4-4h9.2
	c10.8,0,18.8,8.4,18.8,20v144C512,345.6,504,354,493.2,354z"/>
<path d="M469.2,290h-424C34,290,24,280.8,24,270V162c0-2.4,1.6-4,4-4h456c2.4,0,4,1.6,4,4v108C488,281.2,480,290,469.2,290z M32,166
	v104c0,6.4,6.4,12,13.2,12h424c6.4,0,10.8-5.2,10.8-12V166H32z"/>
<path d="M476,354c-2.4,0-4-1.6-4-4v-44c0-2.4,1.6-4,4-4s4,1.6,4,4v44C480,352.4,478.4,354,476,354z"/>
<path d="M36,354c-2.4,0-4-1.6-4-4v-44c0-2.4,1.6-4,4-4s4,1.6,4,4v44C40,352.4,38.4,354,36,354z"/>
<path d="M508,310H4c-2.4,0-4-1.6-4-4s1.6-4,4-4h504c2.4,0,4,1.6,4,4S510.4,310,508,310z"/>
<path d="M420,334H36c-2.4,0-4-1.6-4-4s1.6-4,4-4h384c2.4,0,4,1.6,4,4S422.4,334,420,334z"/>
<path d="M476,334h-32c-2.4,0-4-1.6-4-4s1.6-4,4-4h32c2.4,0,4,1.6,4,4S478.4,334,476,334z"/>
<path d="M276,322h-40c-2.4,0-4-1.6-4-4s1.6-4,4-4h40c2.4,0,4,1.6,4,4S278.4,322,276,322z"/>
<path d="M216,322h-8c-2.4,0-4-1.6-4-4s1.6-4,4-4h8c2.4,0,4,1.6,4,4S218.4,322,216,322z"/>
<path d="M304,322h-8c-2.4,0-4-1.6-4-4s1.6-4,4-4h8c2.4,0,4,1.6,4,4S306.4,322,304,322z"/>
<path d="M460,202c-2.4,0-4-1.6-4-4v-8h-28c-2.4,0-4-1.6-4-4s1.6-4,4-4h32c2.4,0,4,1.6,4,4v12C464,200.4,462.4,202,460,202z"/>
<path d="M460,230c-2.4,0-4-1.6-4-4v-12c0-2.4,1.6-4,4-4s4,1.6,4,4v12C464,228.4,462.4,230,460,230z"/>
<g>
</g>
<g>
</g>
<g>
</g>
<g>
</g>
<g>
</g>
<g>
</g>
<g>
</g>
<g>
</g>
<g>
</g>
<g>
</g>
<g>
</g>
<g>
</g>
<g>
</g>
<g>
</g>
<g>
</g>
</svg>
