<?xml version="1.0" encoding="iso-8859-1"?>
<!-- Generator: Adobe Illustrator 18.1.1, SVG Export Plug-In . SVG Version: 6.00 Build 0)  -->
<svg version="1.1" id="Capa_1" xmlns="http://www.w3.org/2000/svg" xmlns:xlink="http://www.w3.org/1999/xlink" x="0px" y="0px"
	 viewBox="0 0 53.568 53.568" style="enable-background:new 0 0 53.568 53.568;" xml:space="preserve">
<g>
	<g>
		<path style="fill:#010002;" d="M52.809,23.911l-4.182-9.452c-0.523-1.188-1.88-2.088-3.179-2.122L19.223,8.678l-0.139-0.01
			c-1.931,0-3.502,1.57-3.502,3.501v1.175c0,1.902,1.524,3.455,3.416,3.501l22.88,3.656l0.158,0.013
			c0.502,0,1.147,0.444,1.326,0.913l1.215,3.191c0.039,0.104,0.038,0.162,0.045,0.171c-0.019,0.01-0.074,0.031-0.185,0.031h-5.521
			v-1.036c0-0.553-0.446-1-1-1h-9.953c-0.553,0-1,0.447-1,1v1.036H16.839C7.554,24.819,0,32.374,0,41.659
			c0,0.4,0.014,0.798,0.041,1.188c0.078,1.146,1.3,2.045,2.782,2.047l48.081,0.007c1.469,0,2.664-1.196,2.664-2.666V27.508
			C53.568,26.453,53.234,24.873,52.809,23.911z M51.57,42.234c0,0.366-0.299,0.666-0.664,0.666v1l-0.004-1L2.824,42.893
			c-0.445,0-0.751-0.188-0.786-0.188c-0.001,0-0.001,0-0.001,0C2.012,42.359,2,42.01,2,41.657c0-8.183,6.656-14.838,14.839-14.838
			H44.44c0.771,0,1.438-0.324,1.828-0.889c0.39-0.564,0.455-1.303,0.181-2.024l-1.216-3.192c-0.469-1.228-1.793-2.16-3.106-2.2
			l-22.882-3.656l-0.158-0.013c-0.828,0-1.502-0.674-1.502-1.502v-1.175c0-0.808,0.641-1.468,1.441-1.5l26.209,3.657l0.139,0.01
			c0.521,0,1.215,0.452,1.426,0.931l4.182,9.454c0.313,0.708,0.59,2.011,0.59,2.787v14.727H51.57z"/>
		<circle style="fill:#010002;" cx="18.843" cy="34.784" r="3"/>
		<circle style="fill:#010002;" cx="28.967" cy="34.784" r="3"/>
		<circle style="fill:#010002;" cx="39.089" cy="34.784" r="3"/>
	</g>
</g>
<g>
</g>
<g>
</g>
<g>
</g>
<g>
</g>
<g>
</g>
<g>
</g>
<g>
</g>
<g>
</g>
<g>
</g>
<g>
</g>
<g>
</g>
<g>
</g>
<g>
</g>
<g>
</g>
<g>
</g>
</svg>
