<svg height="512" viewBox="0 0 64 64" width="512" xmlns="http://www.w3.org/2000/svg"><path d="m59 12h-54a3 3 0 0 0 -3 3v40a3 3 0 0 0 3 3h5a4 4 0 0 0 8 0h28a4 4 0 0 0 8 0h5a3 3 0 0 0 3-3v-40a3 3 0 0 0 -3-3zm-45 48a2 2 0 0 1 -2-2h4a2 2 0 0 1 -2 2zm36 0a2 2 0 0 1 -2-2h4a2 2 0 0 1 -2 2zm10-5a1 1 0 0 1 -1 1h-54a1 1 0 0 1 -1-1v-40a1 1 0 0 1 1-1h54a1 1 0 0 1 1 1z"/><path d="m49 16h-42a1 1 0 0 0 -1 1v36a1 1 0 0 0 1 1h42a1 1 0 0 0 1-1v-36a1 1 0 0 0 -1-1zm-1 36h-40v-34h40z"/><path d="m55 24a3 3 0 1 0 3 3 3 3 0 0 0 -3-3zm0 4a1 1 0 1 1 1-1 1 1 0 0 1 -1 1z"/><path d="m55 32a3 3 0 1 0 3 3 3 3 0 0 0 -3-3zm0 4a1 1 0 1 1 1-1 1 1 0 0 1 -1 1z"/><path d="m55 40a3 3 0 1 0 3 3 3 3 0 0 0 -3-3zm0 4a1 1 0 1 1 1-1 1 1 0 0 1 -1 1z"/><path d="m55 22a1 1 0 0 0 1-1v-2a1 1 0 0 0 -2 0v2a1 1 0 0 0 1 1z"/><path d="m55 48a1 1 0 0 0 -1 1v2a1 1 0 0 0 2 0v-2a1 1 0 0 0 -1-1z"/><path d="m10.485 46.857 2.15 1.29a13.007 13.007 0 0 0 6.689 1.853h17.352a13.007 13.007 0 0 0 6.689-1.853l2.15-1.29a1 1 0 0 0 -.515-1.857h-34a1 1 0 0 0 -.515 1.857zm30.774.143a11 11 0 0 1 -4.583 1h-17.352a11 11 0 0 1 -4.583-1z"/><path d="m27.36 39.564a3.047 3.047 0 0 0 -1.36 2.436 1 1 0 0 0 2 0c0-.337.156-.5.64-.9a2.862 2.862 0 0 0 0-4.872c-.485-.4-.641-.562-.641-.9 0-.321.128-.471.64-.9a3.045 3.045 0 0 0 1.361-2.428 1 1 0 0 0 -2 0c0 .321-.128.471-.64.9a2.86 2.86 0 0 0 0 4.87c.484.4.64.562.64.9s-.156.491-.64.894z"/><path d="m35.359 39.564a3.049 3.049 0 0 0 -1.359 2.436 1 1 0 0 0 2 0c0-.337.156-.5.641-.9a2.863 2.863 0 0 0 0-4.872c-.485-.4-.641-.562-.641-.9 0-.321.129-.471.64-.9a3.042 3.042 0 0 0 1.36-2.428 1 1 0 0 0 -2 0c0 .321-.129.471-.64.9a2.86 2.86 0 0 0 0 4.87c.485.4.641.562.641.9s-.157.491-.642.894z"/><path d="m19.36 39.564a3.047 3.047 0 0 0 -1.36 2.436 1 1 0 0 0 2 0c0-.337.156-.5.64-.9a2.862 2.862 0 0 0 0-4.872c-.485-.4-.641-.562-.641-.9 0-.321.128-.471.64-.9a3.045 3.045 0 0 0 1.361-2.428 1 1 0 0 0 -2 0c0 .321-.128.471-.64.9a2.86 2.86 0 0 0 0 4.87c.484.4.64.562.64.9s-.156.491-.64.894z"/></svg>