<svg id="Capa_1" enable-background="new 0 0 512 512" height="512" viewBox="0 0 512 512" width="512" xmlns="http://www.w3.org/2000/svg"><path d="m504.5 120c4.142 0 7.5-3.358 7.5-7.5v-105c0-4.142-3.358-7.5-7.5-7.5h-497c-4.142 0-7.5 3.358-7.5 7.5v105c0 4.142 3.358 7.5 7.5 7.5h7.5v15h-7.5c-4.142 0-7.5 3.358-7.5 7.5v332c0 4.142 3.358 7.5 7.5 7.5h22.5v22.5c0 4.142 3.358 7.5 7.5 7.5h30c4.142 0 7.5-3.358 7.5-7.5v-22.5h362v22.5c0 4.142 3.358 7.5 7.5 7.5h30c4.142 0 7.5-3.358 7.5-7.5v-22.5h22.5c4.142 0 7.5-3.358 7.5-7.5v-332c0-4.142-3.358-7.5-7.5-7.5h-7.5v-15zm-489.5-105h482v90h-482zm482 135v257h-482v-257zm-437 347h-15v-15h15zm407 0h-15v-15h15zm-452-30v-45h482v45zm467-332h-452v-15h452z"/><path d="m377 90c16.542 0 30-13.458 30-30s-13.458-30-30-30-30 13.458-30 30 13.458 30 30 30zm0-45c8.271 0 15 6.729 15 15s-6.729 15-15 15-15-6.729-15-15 6.729-15 15-15z"/><path d="m135 90c16.542 0 30-13.458 30-30s-13.458-30-30-30-30 13.458-30 30 13.458 30 30 30zm0-45c8.271 0 15 6.729 15 15s-6.729 15-15 15-15-6.729-15-15 6.729-15 15-15z"/><path d="m67.5 392h377c4.142 0 7.5-3.358 7.5-7.5v-152c0-4.142-3.358-7.5-7.5-7.5h-377c-4.142 0-7.5 3.358-7.5 7.5v61c0 4.142 3.358 7.5 7.5 7.5s7.5-3.358 7.5-7.5v-53.5h362v137h-362v-53.5c0-4.142-3.358-7.5-7.5-7.5s-7.5 3.358-7.5 7.5v61c0 4.142 3.358 7.5 7.5 7.5z"/><path d="m82.5 210h347c12.407 0 22.5-10.093 22.5-22.5s-10.093-22.5-22.5-22.5h-347c-12.407 0-22.5 10.093-22.5 22.5s10.093 22.5 22.5 22.5zm0-30h347c4.136 0 7.5 3.364 7.5 7.5s-3.364 7.5-7.5 7.5h-347c-4.136 0-7.5-3.364-7.5-7.5s3.364-7.5 7.5-7.5z"/><path d="m187.5 90h137c4.142 0 7.5-3.358 7.5-7.5v-45c0-4.142-3.358-7.5-7.5-7.5h-137c-4.142 0-7.5 3.358-7.5 7.5v45c0 4.142 3.358 7.5 7.5 7.5zm7.5-45h122v30h-122z"/></svg>