<?xml version="1.0" encoding="iso-8859-1"?>
<!-- Generator: Adobe Illustrator 19.0.0, SVG Export Plug-In . SVG Version: 6.00 Build 0)  -->
<svg version="1.1" id="Capa_1" xmlns="http://www.w3.org/2000/svg" xmlns:xlink="http://www.w3.org/1999/xlink" x="0px" y="0px"
	 viewBox="0 0 496 496" style="enable-background:new 0 0 496 496;" xml:space="preserve">
<g>
	<g>
		<path d="M480,0h-16c-8.824,0-16,7.176-16,16v8H48v-8c0-8.824-7.176-16-16-16H16C7.176,0,0,7.176,0,16v480h48V72h48v92.176
			c-6.56,2.48-10.6,4.232-11.248,4.52L80,170.8v62.672c-9.288,3.312-16,12.112-16,22.528v96v16v40h368v-40v-16v-96
			c0-10.416-6.712-19.216-16-22.528V170.8l-4.752-2.112c-0.648-0.288-4.688-2.032-11.248-4.512V72h48v424h48V16
			C496,7.176,488.824,0,480,0z M32,480H16V16h16V480z M96,181.344c3.528-1.4,9.016-3.472,16-5.856V232H96V181.344z M80,256
			c0-4.408,3.584-8,8-8h24v64h-8c-9.04,0-17.296,3.128-24,8.208V256z M416,360h-16v16h16v16H80v-16h16v-16H80v-8
			c0-13.232,10.768-24,24-24h288c13.232,0,24,10.768,24,24V360z M336,256v24h-16v-56h16v16h16v-16h16v8v8v40h-16v-24H336z M320,208
			v-49.128c5.528,1.016,10.872,2.096,16,3.232V208H320z M352,208v-42.048c5.728,1.488,11.064,2.984,16,4.456V208H352z M352,149.32
			C323.792,142.272,287.64,136,248,136s-75.792,6.272-104,13.32V72h208V149.32z M288,208v-53.816c5.464,0.584,10.776,1.288,16,2.048
			V208H288z M304,224v56h-16v-56H304z M256,208v-55.848c5.4,0.12,10.744,0.336,16,0.68V208H256z M272,224v56h-16v-56H272z M224,208
			v-55.168c5.256-0.344,10.6-0.56,16-0.68V208H224z M240,224v56h-16v-56H240z M192,208v-16h-16v16h-16v-45.92
			c5.12-1.136,10.472-2.208,16-3.224V176h16v-19.776c5.224-0.76,10.536-1.464,16-2.048V208H192z M208,224v56h-16v-56H208z M176,224
			v56h-16v-56H176z M368,296v16H128v-16H368z M128,280v-40v-8v-8h16v56H128z M144,208h-16v-37.608c4.936-1.48,10.264-2.976,16-4.456
			V208z M128,153.632c-5.848,1.688-11.208,3.336-16,4.912V72h16V153.632z M384,158.544c-4.792-1.576-10.152-3.232-16-4.912V72h16
			V158.544z M400,181.352V232h-16v-56.496C390.984,177.888,396.472,179.952,400,181.352z M408,248c4.416,0,8,3.592,8,8v64.208
			c-6.704-5.08-14.96-8.208-24-8.208h-8v-64H408z M448,56H48V40h400V56z M480,480h-16V16h16V480z"/>
	</g>
</g>
<g>
	<g>
		<rect x="112" y="360" width="272" height="16"/>
	</g>
</g>
<g>
</g>
<g>
</g>
<g>
</g>
<g>
</g>
<g>
</g>
<g>
</g>
<g>
</g>
<g>
</g>
<g>
</g>
<g>
</g>
<g>
</g>
<g>
</g>
<g>
</g>
<g>
</g>
<g>
</g>
</svg>
