<svg id="FLIPPERS" height="512" viewBox="0 0 128 128" width="512" xmlns="http://www.w3.org/2000/svg"><path d="m26.86 91.03c1.5-1.41 2.69-2.52 5.19-2.52s3.69 1.11 5.19 2.52c1.65 1.55 3.7 3.48 7.59 3.48s5.93-1.93 7.58-3.48c1.5-1.41 2.69-2.52 5.19-2.52s3.69 1.11 5.19 2.52c1.65 1.55 3.7 3.48 7.59 3.48s5.93-1.93 7.58-3.48c1.51-1.41 2.69-2.52 5.19-2.52s3.69 1.11 5.19 2.52c1.65 1.55 3.7 3.48 7.59 3.48s5.94-1.93 7.59-3.48c1.5-1.41 2.69-2.52 5.19-2.52s3.7 1.11 5.2 2.52c1.65 1.55 3.7 3.48 7.59 3.48a1.75 1.75 0 0 0 0-3.5c-2.5 0-3.69-1.12-5.2-2.53-1.64-1.55-3.7-3.47-7.59-3.47s-5.94 1.92-7.58 3.47c-1.51 1.41-2.7 2.53-5.2 2.53s-3.69-1.12-5.19-2.53c-1.65-1.55-3.7-3.47-7.59-3.47s-5.94 1.92-7.58 3.47c-1.51 1.41-2.69 2.53-5.19 2.53s-3.69-1.12-5.19-2.53c-1.65-1.55-3.7-3.47-7.59-3.47s-5.94 1.92-7.59 3.47c-1.5 1.41-2.68 2.53-5.18 2.53s-3.69-1.12-5.19-2.53c-1.65-1.55-3.7-3.47-7.59-3.47a9.248 9.248 0 0 0 -6.108 2.162v-5.251c.323-.282.631-.566.918-.841 1.5-1.41 2.69-2.53 5.19-2.53s3.69 1.12 5.19 2.53c1.65 1.55 3.7 3.47 7.59 3.47s5.93-1.92 7.58-3.47c1.5-1.41 2.69-2.53 5.19-2.53s3.69 1.12 5.19 2.53c1.65 1.55 3.7 3.47 7.59 3.47s5.93-1.92 7.58-3.47c1.51-1.41 2.69-2.53 5.19-2.53s3.69 1.12 5.19 2.53c1.65 1.55 3.7 3.47 7.59 3.47s5.94-1.92 7.59-3.47c1.5-1.41 2.69-2.53 5.19-2.53s3.7 1.12 5.2 2.53c1.65 1.55 3.7 3.47 7.59 3.47a1.75 1.75 0 0 0 0-3.5c-2.5 0-3.69-1.11-5.2-2.52-1.64-1.55-3.7-3.48-7.59-3.48s-5.94 1.93-7.58 3.48c-1.51 1.41-2.7 2.52-5.2 2.52s-3.69-1.11-5.19-2.52c-1.65-1.55-3.7-3.48-7.59-3.48s-5.94 1.93-7.58 3.48c-1.51 1.41-2.69 2.52-5.19 2.52s-3.69-1.11-5.19-2.52c-1.65-1.55-3.7-3.48-7.59-3.48s-5.94 1.93-7.59 3.48c-1.5 1.41-2.68 2.52-5.18 2.52s-3.69-1.11-5.19-2.52c-1.65-1.55-3.7-3.48-7.59-3.48a9.235 9.235 0 0 0 -6.108 2.17v-15.336a18.27 18.27 0 0 1 18.25-18.25h19.808a1.75 1.75 0 0 0 1.75-1.75v-8.846a1.75 1.75 0 0 0 -1.75-1.75h-38.058v-7.1a1.75 1.75 0 0 0 -1.75-1.75h-17.692a1.75 1.75 0 0 0 -1.75 1.75v79.615a1.75 1.75 0 0 0 1.75 1.75h16.326.014 1.35a1.754 1.754 0 0 0 1.752-1.752v-1.987c.323-.282.631-.566.918-.841 1.5-1.41 2.69-2.52 5.19-2.52s3.69 1.11 5.19 2.52c1.65 1.55 3.7 3.48 7.59 3.48s5.93-1.93 7.58-3.48c1.5-1.41 2.69-2.52 5.19-2.52s3.69 1.11 5.19 2.52c1.65 1.55 3.7 3.48 7.59 3.48s5.93-1.93 7.58-3.48c1.51-1.41 2.69-2.52 5.19-2.52s3.69 1.11 5.19 2.52c1.65 1.55 3.7 3.48 7.59 3.48s5.94-1.93 7.59-3.48c1.5-1.41 2.69-2.52 5.19-2.52s3.7 1.11 5.2 2.52c1.65 1.55 3.7 3.48 7.59 3.48a1.75 1.75 0 0 0 0-3.5c-2.5 0-3.69-1.12-5.2-2.53-1.64-1.55-3.7-3.47-7.59-3.47s-5.94 1.92-7.58 3.47c-1.51 1.41-2.7 2.53-5.2 2.53s-3.69-1.12-5.19-2.53c-1.65-1.54-3.7-3.47-7.59-3.47s-5.94 1.92-7.58 3.47c-1.51 1.41-2.69 2.53-5.19 2.53s-3.69-1.12-5.19-2.53c-1.65-1.55-3.7-3.47-7.59-3.47s-5.94 1.93-7.59 3.47c-1.5 1.41-2.68 2.53-5.18 2.53s-3.69-1.12-5.19-2.53c-1.65-1.55-3.7-3.47-7.59-3.47a9.248 9.248 0 0 0 -6.108 2.162v-5.245c.323-.284.631-.57.918-.84zm-.918-40.956v-6.44h6.44a21.914 21.914 0 0 0 -6.44 6.44zm36.308-15.286v5.346h-36.308v-5.346zm-54-8.846h14.192v76.115h-14.192z"/></svg>