<?xml version="1.0"?>
<svg xmlns="http://www.w3.org/2000/svg" viewBox="0 0 64 64" width="512px" height="512px" class=""><g><g id="Stove"><rect x="3" y="2" width="58" height="57" style="fill:#FFFFFF" data-original="#57565C" class="active-path" data-old_color="#57565C"/><circle cx="18" cy="17" r="10" style="fill:#E0E0E2" data-original="#E0E0E2" class="" data-old_color="#E0E0E2"/><circle cx="18" cy="17" r="5" style="fill:#FFFFFF" data-original="#57565C" class="active-path" data-old_color="#57565C"/><circle cx="18" cy="44" r="10" style="fill:#E0E0E2" data-original="#E0E0E2" class="" data-old_color="#E0E0E2"/><circle cx="18" cy="44" r="5" style="fill:#FFFFFF" data-original="#57565C" class="active-path" data-old_color="#57565C"/><circle cx="46" cy="17" r="10" style="fill:#E0E0E2" data-original="#E0E0E2" class="" data-old_color="#E0E0E2"/><circle cx="46" cy="17" r="5" style="fill:#FFFFFF" data-original="#57565C" class="active-path" data-old_color="#57565C"/><circle cx="46" cy="44" r="10" style="fill:#E0E0E2" data-original="#E0E0E2" class="" data-old_color="#E0E0E2"/><circle cx="46" cy="44" r="5" style="fill:#FFFFFF" data-original="#57565C" class="active-path" data-old_color="#57565C"/><rect x="28" y="59" width="8" height="3" style="fill:#FFFFFF" data-original="#CCA400" class="" data-old_color="#CCA400"/><rect x="14" y="59" width="8" height="3" style="fill:#FFFFFF" data-original="#CCA400" class="" data-old_color="#CCA400"/><rect x="42" y="59" width="8" height="3" style="fill:#FFFFFF" data-original="#CCA400" class="" data-old_color="#CCA400"/><path d="M61,1H3A1,1,0,0,0,2,2V59a1,1,0,0,0,1,1H13v2a1,1,0,0,0,1,1h8a1,1,0,0,0,1-1V60h4v2a1,1,0,0,0,1,1h8a1,1,0,0,0,1-1V60h4v2a1,1,0,0,0,1,1h8a1,1,0,0,0,1-1V60H61a1,1,0,0,0,1-1V2A1,1,0,0,0,61,1ZM21,61H15V60h6Zm14,0H29V60h6Zm14,0H43V60h6Zm11-3H4V3H60Z" data-original="#000000" class="" style="fill:#000000" data-old_color="#000000"/><path d="M6,18H7.051A11.01,11.01,0,0,0,17,27.949V29a1,1,0,0,0,2,0V27.949A11.01,11.01,0,0,0,28.949,18H30a1,1,0,0,0,0-2H28.949A11.01,11.01,0,0,0,19,6.051V5a1,1,0,0,0-2,0V6.051A11.01,11.01,0,0,0,7.051,16H6a1,1,0,0,0,0,2ZM17,8.059V9a1,1,0,0,0,2,0V8.059A9.011,9.011,0,0,1,26.941,16H26a1,1,0,0,0,0,2h.941A9.011,9.011,0,0,1,19,25.941V25a1,1,0,0,0-2,0v.941A9.011,9.011,0,0,1,9.059,18H10a1,1,0,0,0,0-2H9.059A9.011,9.011,0,0,1,17,8.059Z" data-original="#000000" class="" style="fill:#000000" data-old_color="#000000"/><path d="M18,23a6,6,0,1,0-6-6A6.006,6.006,0,0,0,18,23Zm0-10a4,4,0,1,1-4,4A4,4,0,0,1,18,13Z" data-original="#000000" class="" style="fill:#000000" data-old_color="#000000"/><path d="M6,45H7.051A11.01,11.01,0,0,0,17,54.949V56a1,1,0,0,0,2,0V54.949A11.01,11.01,0,0,0,28.949,45H30a1,1,0,0,0,0-2H28.949A11.01,11.01,0,0,0,19,33.051V32a1,1,0,0,0-2,0v1.051A11.01,11.01,0,0,0,7.051,43H6a1,1,0,0,0,0,2Zm11-9.941V36a1,1,0,0,0,2,0v-.941A9.011,9.011,0,0,1,26.941,43H26a1,1,0,0,0,0,2h.941A9.011,9.011,0,0,1,19,52.941V52a1,1,0,0,0-2,0v.941A9.011,9.011,0,0,1,9.059,45H10a1,1,0,0,0,0-2H9.059A9.011,9.011,0,0,1,17,35.059Z" data-original="#000000" class="" style="fill:#000000" data-old_color="#000000"/><path d="M18,50a6,6,0,1,0-6-6A6.006,6.006,0,0,0,18,50Zm0-10a4,4,0,1,1-4,4A4,4,0,0,1,18,40Z" data-original="#000000" class="" style="fill:#000000" data-old_color="#000000"/><path d="M34,18h1.051A11.01,11.01,0,0,0,45,27.949V29a1,1,0,0,0,2,0V27.949A11.01,11.01,0,0,0,56.949,18H58a1,1,0,0,0,0-2H56.949A11.01,11.01,0,0,0,47,6.051V5a1,1,0,0,0-2,0V6.051A11.01,11.01,0,0,0,35.051,16H34a1,1,0,0,0,0,2ZM45,8.059V9a1,1,0,0,0,2,0V8.059A9.011,9.011,0,0,1,54.941,16H54a1,1,0,0,0,0,2h.941A9.011,9.011,0,0,1,47,25.941V25a1,1,0,0,0-2,0v.941A9.011,9.011,0,0,1,37.059,18H38a1,1,0,0,0,0-2h-.941A9.011,9.011,0,0,1,45,8.059Z" data-original="#000000" class="" style="fill:#000000" data-old_color="#000000"/><path d="M46,23a6,6,0,1,0-6-6A6.006,6.006,0,0,0,46,23Zm0-10a4,4,0,1,1-4,4A4,4,0,0,1,46,13Z" data-original="#000000" class="" style="fill:#000000" data-old_color="#000000"/><path d="M34,45h1.051A11.01,11.01,0,0,0,45,54.949V56a1,1,0,0,0,2,0V54.949A11.01,11.01,0,0,0,56.949,45H58a1,1,0,0,0,0-2H56.949A11.01,11.01,0,0,0,47,33.051V32a1,1,0,0,0-2,0v1.051A11.01,11.01,0,0,0,35.051,43H34a1,1,0,0,0,0,2Zm11-9.941V36a1,1,0,0,0,2,0v-.941A9.011,9.011,0,0,1,54.941,43H54a1,1,0,0,0,0,2h.941A9.011,9.011,0,0,1,47,52.941V52a1,1,0,0,0-2,0v.941A9.011,9.011,0,0,1,37.059,45H38a1,1,0,0,0,0-2h-.941A9.011,9.011,0,0,1,45,35.059Z" data-original="#000000" class="" style="fill:#000000" data-old_color="#000000"/><path d="M46,50a6,6,0,1,0-6-6A6.006,6.006,0,0,0,46,50Zm0-10a4,4,0,1,1-4,4A4,4,0,0,1,46,40Z" data-original="#000000" class="" style="fill:#000000" data-old_color="#000000"/><path d="M54,55H50a1,1,0,0,0,0,2h4a1,1,0,0,0,0-2Z" data-original="#000000" class="" style="fill:#000000" data-old_color="#000000"/><path d="M58,55H57a1,1,0,0,0,0,2h1a1,1,0,0,0,0-2Z" data-original="#000000" class="" style="fill:#000000" data-old_color="#000000"/></g></g> </svg>
