<?xml version="1.0"?>
<svg xmlns="http://www.w3.org/2000/svg" viewBox="0 0 64 64" width="512" height="512"><g id="Outline"><path d="M34.75,44.75a3.65,3.65,0,0,1-5.5,0,5.64,5.64,0,0,0-8.5,0,3.65,3.65,0,0,1-5.5,0,5.64,5.64,0,0,0-8.5,0,3.68,3.68,0,0,1-3.54,1.16,1,1,0,1,0-.42,2,5.62,5.62,0,0,0,5.46-1.79,3.65,3.65,0,0,1,5.5,0,5.64,5.64,0,0,0,8.5,0,3.65,3.65,0,0,1,5.5,0,5.64,5.64,0,0,0,8.5,0,3.65,3.65,0,0,1,5.5,0,5.64,5.64,0,0,0,8.5,0,3.65,3.65,0,0,1,5.5,0,5.62,5.62,0,0,0,5.46,1.79,1,1,0,1,0-.42-2,3.68,3.68,0,0,1-3.54-1.16A5.76,5.76,0,0,0,56,43.69V25a2,2,0,0,1,4,0,1,1,0,0,0,2,0,4,4,0,0,0-8,0v3H42V25a2,2,0,0,1,4,0,1,1,0,0,0,2,0,4,4,0,0,0-8,0V42.92a5.56,5.56,0,0,0-1-.1A5.66,5.66,0,0,0,34.75,44.75ZM42,38H54v2H42Zm12-8v2H45a1,1,0,0,0,0,2h9v2H42V30ZM42,42H54v.92a5.56,5.56,0,0,0-1-.1,5.66,5.66,0,0,0-4.25,1.93,3.65,3.65,0,0,1-5.5,0A5.76,5.76,0,0,0,42,43.69Z"/><path d="M60.88,52.32a1.62,1.62,0,0,1-1.63-.57,5.64,5.64,0,0,0-8.5,0,3.65,3.65,0,0,1-5.5,0,5.64,5.64,0,0,0-8.5,0,3.65,3.65,0,0,1-5.5,0,5.64,5.64,0,0,0-8.5,0,3.65,3.65,0,0,1-5.5,0,5.64,5.64,0,0,0-8.5,0,3.65,3.65,0,0,1-5.1.36,1,1,0,0,0-1.3,1.52,5.65,5.65,0,0,0,7.9-.56,3.65,3.65,0,0,1,5.5,0,5.64,5.64,0,0,0,8.5,0,3.65,3.65,0,0,1,5.5,0,5.64,5.64,0,0,0,8.5,0,3.65,3.65,0,0,1,5.5,0,5.64,5.64,0,0,0,8.5,0,3.65,3.65,0,0,1,5.5,0,3.6,3.6,0,0,0,3.37,1.24,1,1,0,0,0-.24-2Z"/><path d="M60.79,59.91a3.68,3.68,0,0,1-3.54-1.16,5.64,5.64,0,0,0-8.5,0,3.65,3.65,0,0,1-5.5,0,5.64,5.64,0,0,0-8.5,0,3.65,3.65,0,0,1-5.5,0,5.64,5.64,0,0,0-8.5,0,3.65,3.65,0,0,1-5.5,0,5.64,5.64,0,0,0-8.5,0,3.68,3.68,0,0,1-3.54,1.16A1,1,0,0,0,2,60.67a1,1,0,0,0,.77,1.19,5.62,5.62,0,0,0,5.46-1.79,3.65,3.65,0,0,1,5.5,0,5.64,5.64,0,0,0,8.5,0,3.65,3.65,0,0,1,5.5,0,5.64,5.64,0,0,0,8.5,0,3.65,3.65,0,0,1,5.5,0,5.64,5.64,0,0,0,8.5,0,3.65,3.65,0,0,1,5.5,0,5.62,5.62,0,0,0,5.46,1.79,1,1,0,1,0-.42-2Z"/><path d="M61,36H59a1,1,0,0,0,0,2h2a1,1,0,0,0,0-2Z"/><path d="M3,38H37a1,1,0,0,0,0-2H3a1,1,0,0,0,0,2Z"/></g></svg>
