<?xml version="1.0"?>
<svg xmlns="http://www.w3.org/2000/svg" id="Toaster" viewBox="0 0 64 64" width="512" height="512"><path d="M62,23H57V19.153A6.492,6.492,0,0,0,60,14c0-4.486-5.71-8-13-8S34,9.514,34,14a6.492,6.492,0,0,0,3,5.153V23H27V19.153A6.492,6.492,0,0,0,30,14c0-4.486-5.71-8-13-8S4,9.514,4,14a6.492,6.492,0,0,0,3,5.153V23H2a1,1,0,0,0-1,1V54a1,1,0,0,0,1,1H3v3a1,1,0,0,0,1,1H14a1,1,0,0,0,1-1V55H49v3a1,1,0,0,0,1,1H60a1,1,0,0,0,1-1V55h1a1,1,0,0,0,1-1V24A1,1,0,0,0,62,23ZM38.549,17.794C36.905,16.713,36,15.366,36,14c0-3.252,5.038-6,11-6s11,2.748,11,6c0,1.366-.905,2.713-2.549,3.794A1,1,0,0,0,55,18.63V23H39V18.63A1,1,0,0,0,38.549,17.794Zm-30,0C6.905,16.713,6,15.366,6,14c0-3.252,5.038-6,11-6s11,2.748,11,6c0,1.366-.905,2.713-2.549,3.794A1,1,0,0,0,25,18.63V23H9V18.63A1,1,0,0,0,8.549,17.794ZM13,57H5V55h8Zm46,0H51V55h8Zm2-4H3V25H61Z"/><path d="M53,30a1,1,0,0,0-2,0v6H46a1,1,0,0,0-1,1v4a1,1,0,0,0,1,1h5v5a1,1,0,0,0,2,0V42h5a1,1,0,0,0,1-1V37a1,1,0,0,0-1-1H53Zm4,8v2H47V38Z"/><path d="M52,49a1,1,0,0,0-1,1v1a1,1,0,0,0,2,0V50A1,1,0,0,0,52,49Z"/><path d="M6,44a1,1,0,0,0-1,1v5a1,1,0,0,0,2,0V45A1,1,0,0,0,6,44Z"/><path d="M9,44a1,1,0,0,0-1,1v5a1,1,0,0,0,2,0V45A1,1,0,0,0,9,44Z"/><path d="M12,44a1,1,0,0,0-1,1v5a1,1,0,0,0,2,0V45A1,1,0,0,0,12,44Z"/><path d="M6,40a1,1,0,0,0-1,1v1a1,1,0,0,0,2,0V41A1,1,0,0,0,6,40Z"/><path d="M12,15a1,1,0,0,0,.707-.293l1-1a1,1,0,0,0-1.414-1.414l-1,1A1,1,0,0,0,12,15Z"/><path d="M12,21a1,1,0,0,0,.707-.293l3.5-3.5a1,1,0,0,0-1.414-1.414l-3.5,3.5A1,1,0,0,0,12,21Z"/><path d="M18,21a1,1,0,0,0,.707-.293l4.5-4.5a1,1,0,0,0-1.414-1.414l-4.5,4.5A1,1,0,0,0,18,21Z"/><path d="M19,14a1,1,0,0,0,.707-.293l1-1a1,1,0,0,0-1.414-1.414l-1,1A1,1,0,0,0,19,14Z"/><path d="M42,15a1,1,0,0,0,.707-.293l1-1a1,1,0,0,0-1.414-1.414l-1,1A1,1,0,0,0,42,15Z"/><path d="M42,21a1,1,0,0,0,.707-.293l3.5-3.5a1,1,0,0,0-1.414-1.414l-3.5,3.5A1,1,0,0,0,42,21Z"/><path d="M48,21a1,1,0,0,0,.707-.293l4.5-4.5a1,1,0,0,0-1.414-1.414l-4.5,4.5A1,1,0,0,0,48,21Z"/><path d="M49,14a1,1,0,0,0,.707-.293l1-1a1,1,0,0,0-1.414-1.414l-1,1A1,1,0,0,0,49,14Z"/></svg>
