<?xml version="1.0" encoding="iso-8859-1"?>
<!-- Generator: Adobe Illustrator 17.1.0, SVG Export Plug-In . SVG Version: 6.00 Build 0)  -->
<!DOCTYPE svg PUBLIC "-//W3C//DTD SVG 1.1//EN" "http://www.w3.org/Graphics/SVG/1.1/DTD/svg11.dtd">
<svg version="1.1" id="Capa_1" xmlns="http://www.w3.org/2000/svg" xmlns:xlink="http://www.w3.org/1999/xlink" x="0px" y="0px"
	 viewBox="0 0 476.8 476.8" style="enable-background:new 0 0 476.8 476.8;" xml:space="preserve">
<path d="M405.986,114.849C361.12,82.614,301.603,64.861,238.4,64.861S115.68,82.614,70.814,114.849
	C25.149,147.659,0,191.537,0,238.4s25.149,90.741,70.814,123.551C115.68,394.187,175.197,411.94,238.4,411.94
	s122.72-17.753,167.586-49.989c45.665-32.81,70.814-76.688,70.814-123.551S451.651,147.659,405.986,114.849z M238.4,395.94
	C115.768,395.94,16,325.268,16,238.4s99.768-157.54,222.4-157.54s222.4,70.672,222.4,157.54S361.032,395.94,238.4,395.94z
	 M326.627,201.498c-3.45,2.759-4.01,7.793-1.251,11.244c3.474,4.343,5.234,8.79,5.234,13.217c0,0.831-0.088,1.664-0.214,2.498
	c-19.511-10.714-54.566-20.454-91.996-20.454c-37.43,0-72.485,9.74-91.996,20.454c-0.127-0.833-0.214-1.667-0.214-2.498
	c0-9.886,9.075-20.044,24.897-27.868c17.846-8.825,41.752-13.685,67.313-13.685c17.307,0,34.229,2.29,48.94,6.621
	c4.238,1.248,8.686-1.176,9.934-5.415c1.248-4.238-1.176-8.686-5.414-9.934c-16.158-4.758-34.645-7.272-53.46-7.272
	c-27.973,0-54.397,5.449-74.406,15.342c-21.799,10.78-33.805,25.771-33.805,42.21c0,16.44,12.005,31.431,33.805,42.21
	c20.008,9.894,46.433,15.343,74.406,15.343c27.973,0,54.397-5.449,74.406-15.343c21.799-10.779,33.805-25.77,33.805-42.21
	c0-8.151-2.94-15.959-8.738-23.21C335.113,199.298,330.08,198.74,326.627,201.498z M305.713,253.827
	c-17.847,8.825-41.752,13.685-67.313,13.685s-49.467-4.86-67.313-13.685c-6.955-3.439-12.603-7.329-16.753-11.449
	c15.885-8.569,47.947-18.375,84.066-18.375c36.118,0,68.18,9.807,84.066,18.375C318.316,246.498,312.668,250.388,305.713,253.827z
	 M425.264,233.067l-8.491-48.157c-1.854-10.511-10.938-18.141-21.601-18.141c-1.276,0-2.564,0.113-3.827,0.336
	c-5.774,1.018-10.807,4.224-14.17,9.027c-3.362,4.802-4.653,10.627-3.636,16.401l8.491,48.157
	c1.854,10.512,10.938,18.141,21.601,18.141c1.276,0,2.564-0.113,3.827-0.336c5.774-1.018,10.807-4.224,14.17-9.027
	C424.991,244.666,426.282,238.841,425.264,233.067z M408.521,240.292c-0.911,1.302-2.275,2.171-3.841,2.447
	c-0.349,0.062-0.701,0.093-1.049,0.093c-2.883,0-5.341-2.069-5.843-4.919l-8.491-48.157c-0.276-1.565,0.073-3.144,0.985-4.446
	c0.911-1.302,2.275-2.171,3.841-2.447c0.349-0.062,0.702-0.093,1.049-0.093c2.884,0,5.341,2.069,5.843,4.919l8.491,48.157
	C409.783,237.411,409.433,238.99,408.521,240.292z M85.455,167.105c-1.264-0.223-2.552-0.336-3.828-0.336
	c-10.662,0-19.746,7.629-21.6,18.141l-8.492,48.157c-1.018,5.774,0.273,11.599,3.636,16.402s8.395,8.008,14.169,9.026
	c1.264,0.223,2.551,0.336,3.828,0.336h0c10.662,0,19.746-7.63,21.6-18.141l8.492-48.157c1.018-5.774-0.273-11.599-3.636-16.401
	C96.261,171.329,91.229,168.123,85.455,167.105z M87.503,189.755l-8.492,48.157c-0.502,2.851-2.96,4.919-5.843,4.919
	c-0.348,0-0.701-0.031-1.05-0.093c-1.565-0.276-2.929-1.145-3.841-2.447c-0.912-1.302-1.262-2.881-0.986-4.446l8.492-48.157
	c0.502-2.85,2.96-4.919,5.843-4.919c0.348,0,0.701,0.031,1.05,0.093c1.565,0.276,2.929,1.145,3.841,2.447
	C87.429,186.611,87.779,188.19,87.503,189.755z M225.522,117.611c0-7.112,5.766-12.878,12.878-12.878s12.878,5.766,12.878,12.878
	s-5.766,12.878-12.878,12.878S225.522,124.724,225.522,117.611z"/>
<g>
</g>
<g>
</g>
<g>
</g>
<g>
</g>
<g>
</g>
<g>
</g>
<g>
</g>
<g>
</g>
<g>
</g>
<g>
</g>
<g>
</g>
<g>
</g>
<g>
</g>
<g>
</g>
<g>
</g>
</svg>
